<?xml version="1.0" encoding="iso-8859-1"?>
<!-- Generator: Adobe Illustrator 19.0.0, SVG Export Plug-In . SVG Version: 6.00 Build 0)  -->
<svg version="1.1" id="Capa_1" xmlns="http://www.w3.org/2000/svg" xmlns:xlink="http://www.w3.org/1999/xlink">
	<defs>

		<symbol id="add" viewBox="0 0 42 42">
			<polygon points="42,20 22,20 22,0 20,0 20,20 0,20 0,22 20,22 20,42 22,42 22,22 42,22 "/>
		</symbol>

		<symbol id="edit" viewBox="0 0 55.25 55.25">
			<path d="M52.618,2.631c-3.51-3.508-9.219-3.508-12.729,0L3.827,38.693C3.81,38.71,3.8,38.731,3.785,38.749
				c-0.021,0.024-0.039,0.05-0.058,0.076c-0.053,0.074-0.094,0.153-0.125,0.239c-0.009,0.026-0.022,0.049-0.029,0.075
				c-0.003,0.01-0.009,0.02-0.012,0.03l-3.535,14.85c-0.016,0.067-0.02,0.135-0.022,0.202C0.004,54.234,0,54.246,0,54.259
				c0.001,0.114,0.026,0.225,0.065,0.332c0.009,0.025,0.019,0.047,0.03,0.071c0.049,0.107,0.11,0.21,0.196,0.296
				c0.095,0.095,0.207,0.168,0.328,0.218c0.121,0.05,0.25,0.075,0.379,0.075c0.077,0,0.155-0.009,0.231-0.027l14.85-3.535
				c0.027-0.006,0.051-0.021,0.077-0.03c0.034-0.011,0.066-0.024,0.099-0.039c0.072-0.033,0.139-0.074,0.201-0.123
				c0.024-0.019,0.049-0.033,0.072-0.054c0.008-0.008,0.018-0.012,0.026-0.02l36.063-36.063C56.127,11.85,56.127,6.14,52.618,2.631z
				 M51.204,4.045c2.488,2.489,2.7,6.397,0.65,9.137l-9.787-9.787C44.808,1.345,48.716,1.557,51.204,4.045z M46.254,18.895l-9.9-9.9
				l1.414-1.414l9.9,9.9L46.254,18.895z M4.961,50.288c-0.391-0.391-1.023-0.391-1.414,0L2.79,51.045l2.554-10.728l4.422-0.491
				l-0.569,5.122c-0.004,0.038,0.01,0.073,0.01,0.11c0,0.038-0.014,0.072-0.01,0.11c0.004,0.033,0.021,0.06,0.028,0.092
				c0.012,0.058,0.029,0.111,0.05,0.165c0.026,0.065,0.057,0.124,0.095,0.181c0.031,0.046,0.062,0.087,0.1,0.127
				c0.048,0.051,0.1,0.094,0.157,0.134c0.045,0.031,0.088,0.06,0.138,0.084C9.831,45.982,9.9,46,9.972,46.017
				c0.038,0.009,0.069,0.03,0.108,0.035c0.036,0.004,0.072,0.006,0.109,0.006c0,0,0.001,0,0.001,0c0,0,0.001,0,0.001,0h0.001
				c0,0,0.001,0,0.001,0c0.036,0,0.073-0.002,0.109-0.006l5.122-0.569l-0.491,4.422L4.204,52.459l0.757-0.757
				C5.351,51.312,5.351,50.679,4.961,50.288z M17.511,44.809L39.889,22.43c0.391-0.391,0.391-1.023,0-1.414s-1.023-0.391-1.414,0
				L16.097,43.395l-4.773,0.53l0.53-4.773l22.38-22.378c0.391-0.391,0.391-1.023,0-1.414s-1.023-0.391-1.414,0L10.44,37.738
				l-3.183,0.354L34.94,10.409l9.9,9.9L17.157,47.992L17.511,44.809z M49.082,16.067l-9.9-9.9l1.415-1.415l9.9,9.9L49.082,16.067z"/>
		</symbol>

		<symbol id="cross" viewBox="0 0 31.112 31.112">
			<polygon points="31.112,1.414 29.698,0 15.556,14.142 1.414,0 0,1.414 14.142,15.556 0,29.698 1.414,31.112 15.556,16.97 
	29.698,31.112 31.112,29.698 16.97,15.556 "/>
		</symbol>
		
		<symbol id="business" viewBox="0 0 512.076 512.076">
			<path d="M374.954,304.263l-76.108-202.062l8.341-75.588c0.282-2.565-0.611-5.12-2.429-6.95
			c-15.813-13.48-36.141-20.477-56.9-19.588c-21.075-0.738-41.652,6.512-57.609,20.3c-1.84,1.851-2.731,4.443-2.417,7.033
			l8.909,73.847l-60.034,332.503c-0.604,3.345,0.834,6.73,3.663,8.616l102.4,68.267c0.106,0.071,0.227,0.092,0.334,0.157
			c0.469,0.279,0.964,0.512,1.478,0.695c0.23,0.084,0.449,0.194,0.683,0.257c0.7,0.195,1.422,0.3,2.148,0.312l0.082,0.012
			l0.009-0.001l0.009,0.001l0.08-0.012c0.729-0.013,1.454-0.118,2.156-0.315c0.233-0.064,0.451-0.172,0.679-0.256
			c0.512-0.183,1.005-0.415,1.473-0.693c0.111-0.067,0.235-0.089,0.345-0.162l35.588-23.779c0.258-0.138,0.508-0.288,0.754-0.45
			l66.05-44.034c2.819-1.879,4.259-5.247,3.671-8.583l-17.367-96.312l31.154-23.383
			C375.128,311.818,376.293,307.812,374.954,304.263z M287.72,144.784c0.365,0.08,0.734,0.135,1.106,0.164l3.766,20.856
			l-85.426-26.252l3.243-17.961L287.72,144.784z M234.537,111.009H282.7l2.758,15.276L234.537,111.009z M247.858,17.142
			c14.888-0.476,29.544,3.779,41.863,12.154l-7.133,64.646H213.05l-7.721-63.996C217.766,21.229,232.676,16.741,247.858,17.142z
			 M204.112,156.472l91.894,28.239l3.119,17.276l-97.798-30.092L204.112,156.472z M198.274,188.808l104.264,32.081l3.292,18.234
			L195.623,203.49L198.274,188.808z M192.562,220.439l116.707,37.735l2.708,14.999l-122.043-38.175L192.562,220.439z
			 M186.878,251.927l128.521,40.201l3.44,19.051l-134.829-43.363L186.878,251.927z M180.949,284.763l141.326,45.452l3.109,17.22
			l-147.198-47.37L180.949,284.763z M175.127,317.011l153.694,49.461l3.099,17.167l-159.561-51.298L175.127,317.011z
			 M247.498,493.282l-44.382-29.589l60.928,18.532L247.498,493.282z M282.449,469.988L154.531,431.08l3.109-17.22l141.062,45.293
			L282.449,469.988z M316.85,447.055L160.7,396.918l2.777-15.382l169.747,54.604L316.85,447.055z M166.537,364.59l2.762-15.302
			l166.058,53.387l3.109,17.221L166.537,364.59z M337.541,318.717l-22.646-125.504l41.833,111.088L337.541,318.717z"/>
		</symbol>

		<symbol id="personal" viewBox="0 0 563.43 563.43">
			<path d="M280.79,314.559c83.266,0,150.803-67.538,150.803-150.803S364.055,13.415,280.79,13.415S129.987,80.953,129.987,163.756
				S197.524,314.559,280.79,314.559z M280.79,52.735c61.061,0,111.021,49.959,111.021,111.021S341.851,274.776,280.79,274.776
				s-111.021-49.959-111.021-111.021S219.728,52.735,280.79,52.735z"/>
			<path d="M19.891,550.015h523.648c11.102,0,19.891-8.789,19.891-19.891c0-104.082-84.653-189.198-189.198-189.198H189.198
				C85.116,340.926,0,425.579,0,530.124C0,541.226,8.789,550.015,19.891,550.015z M189.198,380.708h185.034
				c75.864,0,138.313,56.436,148.028,129.524H41.17C50.884,437.607,113.334,380.708,189.198,380.708z"/>
		</symbol>

		<symbol id="tick" viewBox="0 0 59 59">
			<path d="M52,21c-0.553,0-1,0.447-1,1v32H2V5h49v1c0,0.553,0.447,1,1,1s1-0.447,1-1V3H0v53h53V22C53,21.447,52.553,21,52,21z"/>
			<path d="M58.707,7.293c-0.391-0.391-1.023-0.391-1.414,0L27,37.586l-13.07-13.07c-0.391-0.391-1.023-0.391-1.414,0
				s-0.391,1.023,0,1.414l13.777,13.777C26.488,39.902,26.744,40,27,40s0.512-0.098,0.707-0.293l31-31
				C59.098,8.316,59.098,7.684,58.707,7.293z"/>
		</symbol>

		<symbol id="delete" viewBox="0 0 60 60">
				<path d="M49.416,10.199c-0.572-0.759-1.405-1.25-2.346-1.382l-9.352-1.314l0.417-2.971c0.111-0.791-0.093-1.58-0.577-2.222
		s-1.185-1.056-1.977-1.167L27.661,0.03c-0.791-0.111-1.58,0.094-2.222,0.577c-0.641,0.483-1.056,1.185-1.167,1.976l-0.418,2.971
		L14.504,4.24c-1.942-0.272-3.745,1.085-4.017,3.026l-0.619,4.401l8.353,1.174l-5.855,5.855c-0.089,0.089-0.144,0.198-0.204,0.305
		h-1.03v37.271c0,2.057,1.673,3.729,3.729,3.729h28.541c2.057,0,3.729-1.673,3.729-3.729V19h-5v-2.799l7.347,1.032l0.618-4.399
		C50.229,11.893,49.988,10.957,49.416,10.199z M26.253,2.861c0.037-0.262,0.175-0.495,0.39-0.657
		c0.214-0.161,0.478-0.231,0.74-0.193l7.922,1.113c0.262,0.037,0.496,0.176,0.658,0.391c0.162,0.214,0.23,0.477,0.193,0.738
		l-0.417,2.971l-9.903-1.392L26.253,2.861z M18.475,15.414L22.061,19h-7.171L18.475,15.414z M35.132,16v3h-1v-3h-10v2.243
		l-5.319-5.319L40.702,16H35.132z M40.132,18v1h-3v-1H40.132z M32.132,18v1h-6v-1H32.132z M45.132,21v35.271
		c0,0.954-0.776,1.729-1.729,1.729H14.862c-0.954,0-1.729-0.775-1.729-1.729V21h11h0.07h9.93h1h7H45.132z M48.117,12.556
		l-0.34,2.418l-35.65-5.01l0.34-2.42c0.119-0.849,0.904-1.439,1.758-1.324l9.351,1.314v0l8.601,1.209l14.615,2.054
		c0.412,0.058,0.776,0.272,1.026,0.604C48.069,11.734,48.175,12.144,48.117,12.556z"/>
		<circle cx="17.132" cy="28" r="1"/>
	<circle cx="17.132" cy="34" r="1"/>
	<circle cx="20.132" cy="25" r="1"/>
	<circle cx="26.132" cy="25" r="1"/>
	<circle cx="20.132" cy="31" r="1"/>
	<circle cx="26.132" cy="31" r="1"/>
	<circle cx="23.132" cy="28" r="1"/>
	<circle cx="29.132" cy="28" r="1"/>
	<circle cx="23.132" cy="34" r="1"/>
	<circle cx="29.132" cy="34" r="1"/>
	<circle cx="32.132" cy="25" r="1"/>
	<circle cx="38.132" cy="25" r="1"/>
	<circle cx="32.132" cy="31" r="1"/>
	<circle cx="38.132" cy="31" r="1"/>
	<circle cx="35.132" cy="28" r="1"/>
	<circle cx="41.132" cy="28" r="1"/>
	<circle cx="35.132" cy="34" r="1"/>
	<circle cx="41.132" cy="34" r="1"/>
	<circle cx="17.132" cy="40" r="1"/>
	<circle cx="17.132" cy="46" r="1"/>
	<circle cx="20.132" cy="37" r="1"/>
	<circle cx="26.132" cy="37" r="1"/>
	<circle cx="20.132" cy="43" r="1"/>
	<circle cx="26.132" cy="43" r="1"/>
	<circle cx="23.132" cy="40" r="1"/>
	<circle cx="29.132" cy="40" r="1"/>
	<circle cx="23.132" cy="46" r="1"/>
	<circle cx="29.132" cy="46" r="1"/>
	<circle cx="32.132" cy="37" r="1"/>
	<circle cx="38.132" cy="37" r="1"/>
	<circle cx="32.132" cy="43" r="1"/>
	<circle cx="38.132" cy="43" r="1"/>
	<circle cx="35.132" cy="40" r="1"/>
	<circle cx="41.132" cy="40" r="1"/>
	<circle cx="35.132" cy="46" r="1"/>
	<circle cx="41.132" cy="46" r="1"/>
	<circle cx="17.132" cy="52" r="1"/>
	<circle cx="20.132" cy="49" r="1"/>
	<circle cx="26.132" cy="49" r="1"/>
	<circle cx="20.132" cy="55" r="1"/>
	<circle cx="26.132" cy="55" r="1"/>
	<circle cx="23.132" cy="52" r="1"/>
	<circle cx="29.132" cy="52" r="1"/>
	<circle cx="32.132" cy="49" r="1"/>
	<circle cx="38.132" cy="49" r="1"/>
	<circle cx="32.132" cy="55" r="1"/>
	<circle cx="38.132" cy="55" r="1"/>
	<circle cx="35.132" cy="52" r="1"/>
	<circle cx="41.132" cy="52" r="1"/>
		</symbol>

	</defs>

</svg>
